<?xml version="1.0" encoding="UTF-8"?>
<!DOCTYPE svg PUBLIC "-//W3C//DTD SVG 1.1//EN" "http://www.w3.org/Graphics/SVG/1.1/DTD/svg11.dtd">
<!-- Creator: CorelDRAW X8 -->
<svg xmlns="http://www.w3.org/2000/svg" xml:space="preserve" width="350.339mm" height="350.35mm" version="1.1" style="shape-rendering:geometricPrecision; text-rendering:geometricPrecision; image-rendering:optimizeQuality; fill-rule:evenodd; clip-rule:evenodd"
viewBox="0 0 95799 95802"
 xmlns:xlink="http://www.w3.org/1999/xlink">
 <defs>
  <style type="text/css">
   <![CDATA[
    .fil0 {fill:#FEFEFE}
   ]]>
  </style>
 </defs>
 <g id="Camada_x0020_1">
  <metadata id="CorelCorpID_0Corel-Layer"/>
  <g id="_2380495441536">
   <path class="fil0" d="M66652 56667c-5008,0 -8317,-211 -12844,-2443 -2579,-1271 -5159,-3020 -7184,-5046 -4150,-4150 -7489,-10904 -7489,-16970 0,-5371 132,-8035 2582,-12910 1662,-3307 2619,-4608 5316,-7320 9256,-9310 24817,-9962 35468,-512 1099,975 364,-4 1650,1612l2217 2675c8660,11507 5480,30642 -9729,38264 -2576,1292 -6159,2650 -9987,2650zm29147 -25478c0,-26836 -29583,-39247 -48425,-25597 -10398,7533 -14919,19427 -12267,32071 3070,14637 17578,25241 33146,23663 8946,-906 16573,-5604 21871,-12780 2909,-3941 5675,-10547 5675,-17357z"/>
   <path class="fil0" d="M0 87853c0,2746 5557,7949 7745,7949 607,0 4256,-4194 4571,-4602l23305 -25410c890,-1011 7794,-8135 7794,-8511 0,-1098 -1253,-2173 -1885,-2803 -3097,-3090 -2914,-2139 -4087,-1132 -515,442 -703,511 -1216,1027 -404,407 -698,752 -1119,1123 -537,472 -783,573 -1326,1119 -421,423 -686,716 -1114,1128l-8556 7751c-426,356 -736,716 -1129,1113l-3763 3371c-1572,1314 -3163,3214 -4748,4424 -1619,1235 -3267,3243 -4862,4515l-9610 8938z"/>
  </g>
 </g>
</svg>
